#!OML:ASF F:\VICON\USERDATA\INSTALL\rory3\rory3.ASF
:FULLY-SPECIFIED
:DEGREES
1597
root -2.68464 17.9327 -0.900651 3.88865 -2.44882 0.807116
lowerback 4.75204 2.03617 -0.684692
upperback 0.726289 2.67854 0.109295
thorax -1.95165 1.34067 0.324885
lowerneck -25.3389 -3.61926 -10.0236
upperneck 22.1048 -2.5784 5.04448
head 11.6215 -1.35814 3.09214
rclavicle 2.40529e-014 -6.36111e-015
rhumerus -28.1005 -0.0128653 -59.6097
rradius 81.7613
rwrist 30.7037
rhand -27.22 13.3847
rfingers 7.12502
rthumb -0.632585 -16.5941
lclavicle 2.40529e-014 -6.36111e-015
lhumerus -36.333 22.2549 58.7478
lradius 68.5495
lwrist -7.74321
lhand -18.5513 15.9289
lfingers 7.12502
lthumb 7.73821 45.7673
rfemur -12.2741 5.02503 12.9991
rtibia 27.6197
rfoot -17.9806 -10.2833
rtoes -0.800576
lfemur -13.4452 -3.21455 -9.92076
ltibia 34.7751
lfoot -3.74871 11.8094
ltoes -34.9065
1598
root -2.7581 17.956 -0.902732 3.92006 -2.35513 0.815982
lowerback 4.9013 2.186 -0.650389
upperback 0.660324 2.87728 0.0510471
thorax -2.10051 1.43963 0.225294
lowerneck -25.3091 -3.52802 -10.0295
upperneck 22.2396 -2.42485 4.94361
head 11.6532 -1.30605 3.08413
rclavicle 1.91579e-014 4.77083e-015
rhumerus -28.1019 -0.101865 -60.199
rradius 81.7943
rwrist 30.495
rhand -27.3093 13.2655
rfingers 7.12502
rthumb -0.718809 -16.713
lclavicle 1.91579e-014 4.77083e-015
lhumerus -37.2534 22.3474 58.7668
lradius 68.9028
lwrist -7.55541
lhand -18.7071 16.3286
lfingers 7.12502
lthumb 7.58783 46.1725
rfemur -12.0988 4.92671 13.3033
rtibia 27.2739
rfoot -17.9288 -10.4433
rtoes -0.0792087
lfemur -13.9006 -3.39451 -9.55098
ltibia 35.26
lfoot -2.69471 11.2781
ltoes -35.6649
1599
root -2.83449 17.9819 -0.906948 3.95281 -2.32086 0.872303
lowerback 4.98322 2.3419 -0.734531
upperback 0.669789 3.07835 -0.00465067
thorax -2.13994 1.5403 0.198153
lowerneck -25.338 -3.44821 -10.1294
upperneck 22.3245 -2.2776 4.96654
head 11.6802 -1.247 3.13658
rclavicle 1.18277e-014 -6.95746e-015
rhumerus -27.8059 -0.130416 -60.8236
rradius 81.6794
rwrist 30.3402
rhand -27.4442 13.0993
rfingers 7.12502
rthumb -0.849074 -16.8787
lclavicle 1.18277e-014 -6.95746e-015
lhumerus -37.9383 22.7535 58.8498
lradius 69.0418
lwrist -7.28641
lhand -19.3098 16.4972
lfingers 7.12502
lthumb 7.00614 46.3613
rfemur -11.9513 4.87016 13.547
rtibia 26.9092
rfoot -17.8918 -10.5981
rtoes 0.0433441
lfemur -14.4284 -3.52875 -9.22012
ltibia 35.9021
lfoot -1.6245 10.6398
ltoes -35.8239
1600
root -2.91177 18.0064 -0.913249 4.03908 -2.18019 1.03477
lowerback 5.03665 2.4739 -0.916725
upperback 0.681183 3.24134 -0.103567
thorax -2.16412 1.6226 0.184897
lowerneck -25.386 -3.35225 -10.1451
upperneck 22.3765 -2.12683 4.95117
head 11.6958 -1.18328 3.16067
rclavicle -1.22998e-014 4.57205e-015
rhumerus -27.5303 -0.068602 -61.4519
rradius 81.6861
rwrist 30.287
rhand -27.5609 13.0417
rfingers 7.12502
rthumb -0.961791 -16.9359
lclavicle -1.22998e-014 4.57205e-015
lhumerus -38.4092 23.3139 58.9794
lradius 68.9697
lwrist -6.92516
lhand -20.0875 16.0222
lfingers 7.12502
lthumb 6.25531 45.9098
rfemur -11.8381 4.71604 13.671
rtibia 26.5117
rfoot -17.8215 -10.8465
rtoes -0.286596
lfemur -15.222 -3.69625 -8.98193
ltibia 36.7181
lfoot -0.375775 9.91594
ltoes -36.0119
1601
root -2.98963 18.0254 -0.924528 4.11322 -1.8804 1.08969
lowerback 5.22458 2.57306 -0.937747
upperback 0.673154 3.36713 -0.213685
thorax -2.2734 1.68511 0.0655537
lowerneck -25.4925 -3.26699 -10.065
upperneck 22.491 -2.0104 4.89149
head 11.7476 -1.13325 3.14762
rclavicle 1.93567e-014 -4.37326e-015
rhumerus -27.3913 0.0147774 -62.0862
rradius 81.8922
rwrist 30.3463
rhand -27.497 13.1219
rfingers 7.12502
rthumb -0.900133 -16.8559
lclavicle 1.93567e-014 -4.37326e-015
lhumerus -38.8714 23.7987 59.0194
lradius 68.9375
lwrist -6.78529
lhand -20.1597 15.442
lfingers 7.12502
lthumb 6.18568 45.3316
rfemur -11.6923 4.60713 13.9204
rtibia 26.1167
rfoot -17.8069 -11.1717
rtoes 0.0319103
lfemur -16.2388 -3.90165 -8.59651
ltibia 37.6813
lfoot 1.16987 9.07913
ltoes -36.129
1602
root -3.069 18.0472 -0.936456 4.21628 -1.49814 1.16536
lowerback 5.3464 2.62497 -1.00102
upperback 0.680785 3.42884 -0.298558
thorax -2.3327 1.71605 0.00345504
lowerneck -25.6227 -3.15467 -10.0114
upperneck 22.6426 -1.82078 4.75398
head 11.812 -1.06407 3.12281
rclavicle 1.33186e-014 -2.5842e-015
rhumerus -27.0688 0.212216 -62.7293
rradius 82.0875
rwrist 30.6456
rhand -27.5289 13.2316
rfingers 7.12502
rthumb -0.930898 -16.7461
lclavicle 1.33186e-014 -2.5842e-015
lhumerus -39.3769 24.2541 59.029
lradius 68.9882
lwrist -6.65279
lhand -20.3223 15.5309
lfingers 7.12502
lthumb 6.02864 45.4252
rfemur -11.5576 4.48181 14.1342
rtibia 25.7279
rfoot -17.9036 -11.418
rtoes 1.53594
lfemur -17.4431 -4.23265 -8.22561
ltibia 38.8194
lfoot 2.93724 8.31751
ltoes -35.6149
1603
root -3.15068 18.0725 -0.952254 4.29091 -0.976841 1.39326
lowerback 5.58998 2.64642 -1.16997
upperback 0.655298 3.43931 -0.451828
thorax -2.49565 1.72231 -0.0735503
lowerneck -25.6595 -3.03348 -9.89454
upperneck 22.7579 -1.62603 4.52039
head 11.8438 -1.00021 3.05081
rclavicle 5.58585e-014 3.08116e-015
rhumerus -26.7857 0.353422 -63.4582
rradius 82.3841
rwrist 31.0402
rhand -27.5919 13.3462
rfingers 7.12502
rthumb -0.991788 -16.6313
lclavicle 5.58585e-014 3.08116e-015
lhumerus -39.8283 24.5887 58.9888
lradius 68.991
lwrist -6.42932
lhand -20.6392 15.7902
lfingers 7.12502
lthumb 5.72269 45.6929
rfemur -11.3671 4.39283 14.2043
rtibia 25.3349
rfoot -18.0526 -11.7884
rtoes 3.14281
lfemur -18.817 -4.59968 -8.04026
ltibia 40.1578
lfoot 5.10872 7.42938
ltoes -34.6922
1604
root -3.23198 18.0909 -0.975886 4.31493 -0.411349 1.48539
lowerback 5.9173 2.72718 -1.29662
upperback 0.670946 3.53205 -0.484898
thorax -2.66882 1.76955 -0.0609076
lowerneck -25.5801 -2.98371 -9.96828
upperneck 22.7415 -1.49885 4.39586
head 11.8126 -0.966828 3.03693
rclavicle 4.34096e-014 -6.85807e-015
rhumerus -26.4218 0.475993 -63.9837
rradius 82.7122
rwrist 31.0423
rhand -27.5236 13.524
rfingers 7.12502
rthumb -0.925796 -16.4537
lclavicle 4.34096e-014 -6.85807e-015
lhumerus -40.2021 24.8541 59.1734
lradius 69.0658
lwrist -6.20965
lhand -20.8422 15.966
lfingers 7.12502
lthumb 5.52668 45.874
rfemur -11.1467 4.16137 14.4812
rtibia 24.9072
rfoot -17.969 -12.3803
rtoes 2.01302
lfemur -20.3265 -4.89409 -7.71769
ltibia 41.6913
lfoot 7.43278 6.47042
ltoes -32.8871
1605
root -3.31108 18.1037 -1.00104 4.36146 0.174952 1.41442
lowerback 6.0276 2.83628 -1.31034
upperback 0.865902 3.67894 -0.372663
thorax -2.53923 1.8422 0.0501172
lowerneck -25.6733 -2.99165 -10.222
upperneck 22.6564 -1.36734 4.29452
head 11.7894 -0.941465 3.061
rclavicle 4.86525e-014 6.75868e-015
rhumerus -25.7515 0.646412 -64.2876
rradius 83.1226
rwrist 30.5338
rhand -27.2075 13.4219
rfingers 7.12502
rthumb -0.620532 -16.5569
lclavicle 4.86525e-014 6.75868e-015
lhumerus -40.3347 25.2757 59.6711
lradius 69.2858
lwrist -5.9221
lhand -20.7302 15.9572
lfingers 7.12502
lthumb 5.6348 45.8623
rfemur -10.9429 3.8169 14.9318
rtibia 24.4529
rfoot -17.7894 -12.9678
rtoes 0.532422
lfemur -21.9996 -5.20984 -7.21452
ltibia 43.401
lfoot 9.36378 5.7369
ltoes -30.5073
1606
root -3.38276 18.121 -1.02215 4.43273 0.835942 1.38239
lowerback 6.14702 2.90855 -1.08179
upperback 1.03364 3.7881 -0.415661
thorax -2.41663 1.8937 -0.130788
lowerneck -25.7952 -2.96014 -10.34
upperneck 22.6467 -1.23377 4.20227
head 11.7985 -0.903419 3.06835
rclavicle 6.01324e-015 8.54774e-015
rhumerus -25.1285 0.886283 -64.7892
rradius 83.5295
rwrist 29.9105
rhand -27.1508 13.3249
rfingers 7.12502
rthumb -0.565732 -16.6541
lclavicle 6.01324e-015 8.54774e-015
lhumerus -40.3789 25.512 60.0472
lradius 69.5052
lwrist -5.5832
lhand -20.6445 15.9707
lfingers 7.12502
lthumb 5.71761 45.8736
rfemur -10.7501 3.33939 15.274
rtibia 24.0045
rfoot -17.6128 -13.3703
rtoes 0.321688
lfemur -23.8322 -5.7056 -6.79699
ltibia 45.2736
lfoot 11.0869 5.08411
ltoes -28.1988
1607
root -3.45179 18.1356 -1.04667 4.4973 1.51395 1.29958
lowerback 6.48941 2.97302 -0.595163
upperback 1.06326 3.89726 -0.599804
thorax -2.53249 1.94323 -0.617329
lowerneck -25.732 -2.90505 -10.3622
upperneck 22.6806 -1.15786 4.21475
head 11.7936 -0.870668 3.09056
rclavicle -2.0773e-014 1.38155e-014
rhumerus -24.6359 1.1545 -65.5199
rradius 83.8531
rwrist 29.2759
rhand -27.3269 13.1916
rfingers 7.12502
rthumb -0.735832 -16.7869
lclavicle -2.0773e-014 1.38155e-014
lhumerus -40.5313 25.4241 60.1634
lradius 69.7294
lwrist -5.23713
lhand -20.452 15.8595
lfingers 7.12502
lthumb 5.90347 45.7573
rfemur -10.5828 2.81111 15.6369
rtibia 23.5542
rfoot -17.4698 -13.6002
rtoes 0.724894
lfemur -25.7965 -6.17069 -6.35789
ltibia 47.2902
lfoot 12.8165 4.30301
ltoes -25.9447
1608
root -3.51913 18.1474 -1.07862 4.55184 2.2474 1.17989
lowerback 6.93744 3.0433 -0.0312939
upperback 1.07372 4.02182 -0.79622
thorax -2.71778 1.99867 -1.16899
lowerneck -25.6447 -2.88893 -10.3985
upperneck 22.7393 -1.15061 4.28498
head 11.7998 -0.862855 3.12572
rclavicle -3.04141e-014 -1.37161e-014
rhumerus -24.152 1.32663 -66.2273
rradius 84.2703
rwrist 28.5426
rhand -27.5721 13.0826
rfingers 7.12502
rthumb -0.97262 -16.8949
lclavicle -3.04141e-014 -1.37161e-014
lhumerus -40.5796 25.1166 60.2761
lradius 69.9201
lwrist -4.91762
lhand -20.3017 15.4902
lfingers 7.12502
lthumb 6.04853 45.3839
rfemur -10.4421 2.15967 16.0381
rtibia 23.1318
rfoot -17.2953 -13.7476
rtoes 0.960697
lfemur -27.895 -6.61534 -5.9263
ltibia 49.438
lfoot 14.3666 3.55918
ltoes -23.5408
1609
root -3.58457 18.1602 -1.11143 4.50336 3.05389 0.984688
lowerback 7.40747 3.11087 0.490652
upperback 1.16703 4.14931 -0.835107
thorax -2.84083 2.05617 -1.53593
lowerneck -25.5312 -2.84431 -10.3216
upperneck 22.7427 -1.05216 4.0109
head 11.7709 -0.849441 3.02524
rclavicle 5.14355e-015 1.70955e-014
rhumerus -23.5369 1.61746 -66.6656
rradius 84.7129
rwrist 27.9624
rhand -27.8699 12.9409
rfingers 7.12502
rthumb -1.26027 -17.0351
lclavicle 5.14355e-015 1.70955e-014
lhumerus -40.5387 24.9097 60.6217
lradius 70.1129
lwrist -4.64007
lhand -20.5629 15.6774
lfingers 7.12502
lthumb 5.7964 45.5781
rfemur -10.2384 1.47076 16.527
rtibia 22.8094
rfoot -17.1228 -13.8943
rtoes 1.20559
lfemur -30.0005 -7.10513 -5.46732
ltibia 51.7314
lfoot 15.5113 2.9658
ltoes -20.6765
